<?xml version="1.0" encoding="UTF-8" standalone="no"?>
<!DOCTYPE svg PUBLIC "-//W3C//DTD SVG 1.1//EN"
 "http://www.w3.org/Graphics/SVG/1.1/DTD/svg11.dtd">
<!-- Generated by graphviz version 12.2.1 (20241206.2353)
 -->
<!-- Title: G Pages: 1 -->
<svg width="554pt" height="125pt"
 viewBox="0.00 0.00 553.75 125.00" xmlns="http://www.w3.org/2000/svg" xmlns:xlink="http://www.w3.org/1999/xlink">
<g id="graph0" class="graph" transform="scale(1 1) rotate(0) translate(4 121)">
<title>G</title>
<polygon fill="white" stroke="none" points="-4,4 -4,-121 549.75,-121 549.75,4 -4,4"/>
<!-- aws_eip.lb -->
<g id="node1" class="node">
<title>aws_eip.lb</title>
<polygon fill="none" stroke="black" points="137.12,-90 56.62,-90 56.62,-54 137.12,-54 137.12,-90"/>
<text text-anchor="middle" x="96.88" y="-67.33" font-family="sans-serif" font-size="14.00">aws_eip.lb</text>
</g>
<!-- aws_instance.web -->
<g id="node2" class="node">
<title>aws_instance.web</title>
<polygon fill="none" stroke="black" points="451.62,-117 323.88,-117 323.88,-81 451.62,-81 451.62,-117"/>
<text text-anchor="middle" x="387.75" y="-94.33" font-family="sans-serif" font-size="14.00">aws_instance.web</text>
</g>
<!-- aws_security_group.example -->
<g id="node3" class="node">
<title>aws_security_group.example</title>
<polygon fill="none" stroke="black" points="193.75,-36 0,-36 0,0 193.75,0 193.75,-36"/>
<text text-anchor="middle" x="96.88" y="-13.32" font-family="sans-serif" font-size="14.00">aws_security_group.example</text>
</g>
<!-- aws_vpc_security_group_ingress_rule.example&#45;1 -->
<g id="node4" class="node">
<title>aws_vpc_security_group_ingress_rule.example&#45;1</title>
<polygon fill="none" stroke="black" points="545.75,-63 229.75,-63 229.75,-27 545.75,-27 545.75,-63"/>
<text text-anchor="middle" x="387.75" y="-40.33" font-family="sans-serif" font-size="14.00">aws_vpc_security_group_ingress_rule.example&#45;1</text>
</g>
<!-- aws_vpc_security_group_ingress_rule.example&#45;1&#45;&gt;aws_eip.lb -->
<g id="edge1" class="edge">
<title>aws_vpc_security_group_ingress_rule.example&#45;1&#45;&gt;aws_eip.lb</title>
<path fill="none" stroke="black" d="M229.63,-59.69C200.31,-62.43 171.69,-65.1 148.66,-67.25"/>
<polygon fill="black" stroke="black" points="148.63,-63.74 139,-68.16 149.28,-70.71 148.63,-63.74"/>
</g>
<!-- aws_vpc_security_group_ingress_rule.example&#45;1&#45;&gt;aws_security_group.example -->
<g id="edge2" class="edge">
<title>aws_vpc_security_group_ingress_rule.example&#45;1&#45;&gt;aws_security_group.example</title>
<path fill="none" stroke="black" d="M229.63,-30.31C221.54,-29.56 213.5,-28.81 205.62,-28.07"/>
<polygon fill="black" stroke="black" points="205.99,-24.59 195.71,-27.14 205.34,-31.56 205.99,-24.59"/>
</g>
</g>
</svg>
